<svg id="Layer_2" height="512" viewBox="0 0 128 128" width="512" xmlns="http://www.w3.org/2000/svg" xmlns:xlink="http://www.w3.org/1999/xlink" data-name="Layer 2"><linearGradient id="linear-gradient" gradientUnits="userSpaceOnUse" x1="117.783" x2="22.038" y1="111.179" y2="15.435"><stop offset="0" stop-color="#06daf7"/><stop offset="1" stop-color="#ff6ca8"/></linearGradient><path d="m28.851 49.212a15.973 15.973 0 0 0 -15.951 15.955 1.75 1.75 0 1 1 -3.5 0 19.477 19.477 0 0 1 19.451-19.455 1.75 1.75 0 0 1 0 3.5zm-25.351 15.955a25.228 25.228 0 0 1 11.947-21.515 1.75 1.75 0 0 0 .646-2.253 13.73 13.73 0 0 1 11.627-19.766 1.75 1.75 0 0 0 1.657-1.748c0-.022 0-.051 0-.08a16.439 16.439 0 0 1 29.88-9.424 1.75 1.75 0 0 0 2.86-2.018 19.939 19.939 0 0 0 -36.182 9.937 17.258 17.258 0 0 0 -14.749 17.07 17.025 17.025 0 0 0 1.144 6.151 28.687 28.687 0 0 0 -12.33 23.646 1.75 1.75 0 0 0 3.5 0zm1.477 8.547a1.75 1.75 0 1 0 -3.295 1.186c.3.842.647 1.681 1.027 2.492a1.75 1.75 0 0 0 3.17-1.492c-.334-.709-.637-1.445-.902-2.185zm50.992-53.486a10.156 10.156 0 1 0 -20.312 0 1.75 1.75 0 0 0 3.5 0 6.656 6.656 0 1 1 13.313 0 1.75 1.75 0 0 0 3.5 0zm-19.341 38.3a1.75 1.75 0 0 0 0 3.5 12.123 12.123 0 0 0 12.108-12.106v-5.657a12.123 12.123 0 0 0 -12.109-12.109h-.75a1.75 1.75 0 0 0 0 3.5h.75a8.618 8.618 0 0 1 8.609 8.609v5.657a8.618 8.618 0 0 1 -8.609 8.609zm10.372 21.128a1.75 1.75 0 0 0 0-3.5h-10a10.136 10.136 0 0 1 -10.125-10.125 1.75 1.75 0 0 0 -3.5 0 13.641 13.641 0 0 0 13.625 13.625zm8.122 22.5a1.75 1.75 0 0 0 -1.75-1.75 12.514 12.514 0 0 1 -12.5-12.5 1.75 1.75 0 0 0 -3.5 0 16.018 16.018 0 0 0 16 16 1.75 1.75 0 0 0 1.753-1.75zm-27.1-1.932a1.829 1.829 0 0 0 .261.019 1.75 1.75 0 0 0 .257-3.481 5.357 5.357 0 0 1 -4.5-6.083 1.75 1.75 0 1 0 -3.461-.519 8.862 8.862 0 0 0 7.448 10.065zm18.228 18.52a1.75 1.75 0 1 0 0-3.5 7.508 7.508 0 0 1 -7.5-7.5 1.75 1.75 0 0 0 -3.5 0 11.012 11.012 0 0 0 11 11zm81.75-41.4a6.938 6.938 0 1 1 -12.915-3.5l-22.185-22.188h-27.15v10.5h10.433a6.936 6.936 0 1 1 .086 3.5h-10.519v10.5h29.481a6.938 6.938 0 1 1 0 3.5h-29.481v10.5h18.482a6.938 6.938 0 1 1 0 3.5h-18.482v10.5h20a1.75 1.75 0 0 1 1.375.668l7.92 10.065a6.956 6.956 0 1 1 -2.687 2.245l-7.458-9.478h-19.15v.313a19.938 19.938 0 0 1 -39.815 1.546 17.239 17.239 0 0 1 -14.253-21.16 29.012 29.012 0 0 1 -3.282-2.842 1.75 1.75 0 1 1 2.481-2.468 25.476 25.476 0 0 0 3.8 3.146 1.75 1.75 0 0 1 .685 1.992 13.744 13.744 0 0 0 12.354 18 1.75 1.75 0 0 1 1.657 1.748v.081a16.438 16.438 0 0 0 32.875-.039v-88.129a1.75 1.75 0 0 1 3.5 0v2.646h27.148l6.866-6.866a6.956 6.956 0 1 1 2.6 2.349l-7.5 7.5a1.75 1.75 0 0 1 -1.237.513h-27.879v7.833h48.607a6.938 6.938 0 1 1 0 3.5h-48.607v10.837h27.875a1.75 1.75 0 0 1 1.237.513l22.7 22.7a6.924 6.924 0 0 1 10.438 5.975zm-10.375-41.771a3.438 3.438 0 1 0 3.437-3.437 3.441 3.441 0 0 0 -3.437 3.437zm-15.5-23.751a3.438 3.438 0 1 0 3.437-3.437 3.441 3.441 0 0 0 -3.437 3.437zm-4.125 105.897a3.438 3.438 0 1 0 3.437 3.438 3.441 3.441 0 0 0 -3.437-3.438zm-10.5-25.813a3.438 3.438 0 1 0 3.437-3.437 3.441 3.441 0 0 0 -3.437 3.437zm11-14a3.437 3.437 0 1 0 3.437-3.437 3.441 3.441 0 0 0 -3.437 3.437zm-19.006-14.166a3.438 3.438 0 1 0 3.437-3.44 3.441 3.441 0 0 0 -3.437 3.44zm45.006 13.6a3.438 3.438 0 1 0 -3.438 3.438 3.441 3.441 0 0 0 3.438-3.434zm-1.688-25.25a6.937 6.937 0 1 1 -6.937-6.937 6.946 6.946 0 0 1 6.937 6.941zm-3.5 0a3.437 3.437 0 1 0 -3.437 3.438 3.441 3.441 0 0 0 3.437-3.434zm3.5 47.55a6.937 6.937 0 1 1 -6.937-6.937 6.946 6.946 0 0 1 6.937 6.941zm-3.5 0a3.437 3.437 0 1 0 -3.437 3.438 3.441 3.441 0 0 0 3.437-3.434z" fill="url(#linear-gradient)"/></svg>